<svg xmlns="http://www.w3.org/2000/svg" width="76" height="76" fill="none"><g filter="url(#a)"><rect width="48" height="48" x="14" y="14" fill="#3342CC" fill-opacity=".3" rx="24"/></g><rect width="43.886" height="43.886" x="15.92" y="16.194" fill="#3342CC" rx="21.943"/><path fill="#fff" d="M47.454 34.936h-1.456a3.214 3.214 0 0 0-3.212-3.212v-1.456a4.674 4.674 0 0 1 4.668 4.668Zm-13.311 7.288a1.311 1.311 0 0 1-1.31-1.294v-9.19H30.21v8.925a4.18 4.18 0 0 0 4.18 4.18h1.064v-2.622h-1.31Zm6.638-7.856v.23h-.003v3.71h-.005a1.311 1.311 0 1 1-2.622 0v-3.941h-2.628v3.94a3.94 3.94 0 0 0 3.939 3.938 3.94 3.94 0 0 0 1.316-.23v1.541a1.311 1.311 0 0 1-1.31 1.295h-1.312v2.622h1.064a4.18 4.18 0 0 0 4.18-4.18v-8.926h-2.619Z"/><defs><filter id="a" width="74.379" height="74.379" x=".81" y=".81" color-interpolation-filters="sRGB" filterUnits="userSpaceOnUse"><feFlood flood-opacity="0" result="BackgroundImageFix"/><feBlend in="SourceGraphic" in2="BackgroundImageFix" result="shape"/><feGaussianBlur result="effect1_foregroundBlur_46_1805" stdDeviation="6.595"/></filter></defs></svg>