<svg width="800" height="800" viewBox="0 0 800 800" fill="none" xmlns="http://www.w3.org/2000/svg">
<g clip-path="url(#clip0_7_92)">
<path d="M798.971 596.267C798.971 600.64 798.837 610.128 798.575 617.458C797.932 635.39 796.509 658.531 794.36 669.074C791.129 684.918 786.251 699.873 779.892 712.321C772.369 727.045 762.771 740.235 751.366 751.618C739.987 762.979 726.81 772.539 712.107 780.033C699.595 786.409 684.546 791.289 668.611 794.506C658.172 796.613 635.206 798.008 617.387 798.642C610.051 798.903 600.561 799.035 596.203 799.035L202.769 798.972C198.393 798.972 188.907 798.838 181.578 798.575C163.644 797.933 140.504 796.51 129.961 794.362C114.116 791.13 99.1613 786.253 86.7143 779.894C71.9889 772.369 58.7999 762.772 47.4165 751.367C36.0557 739.987 26.4958 726.811 19.0028 712.108C12.6248 699.596 7.74501 684.546 4.52793 668.612C2.42119 658.174 1.02685 635.208 0.392478 617.388C0.131866 610.053 0 600.563 0 596.206L0.062422 202.77C0.062422 198.394 0.195849 188.907 0.458802 181.578C1.10253 163.644 2.52341 140.504 4.67307 129.962C7.90418 114.117 12.7809 99.1619 19.1409 86.7143C26.6651 71.9897 36.2633 58.7999 47.667 47.4165C59.0465 36.0565 72.2238 26.4958 86.9265 19.002C99.4398 12.6256 114.489 7.74579 130.423 4.52871C140.861 2.42119 163.828 1.02684 181.646 0.393258C188.983 0.131866 198.473 0 202.83 0L596.266 0.0632023C600.641 0.0632023 610.128 0.196629 617.457 0.459582C635.39 1.10331 658.529 2.52418 669.074 4.67385C684.917 7.90496 699.873 12.7817 712.321 19.1417C727.045 26.6659 740.234 36.2641 751.618 47.6677C762.977 59.0473 772.538 72.2238 780.031 86.9272C786.409 99.4405 791.289 114.489 794.506 130.423C796.613 140.862 798.007 163.828 798.642 181.647C798.903 188.984 799.035 198.473 799.035 202.831L798.971 596.267Z" fill="url(#paint0_linear_7_92)"/>
<path fill-rule="evenodd" clip-rule="evenodd" d="M610.119 331.755H576.559C576.559 292.909 543.376 261.343 502.541 261.343V229.419C561.881 229.419 610.119 275.366 610.119 331.755Z" fill="white"/>
<path fill-rule="evenodd" clip-rule="evenodd" d="M303.317 491.494C286.757 491.494 273.333 478.843 273.082 463.09V462.971C273.082 462.851 273.082 462.791 273.082 462.732V372.33V261.639H212.675V457.302C212.675 495.79 237.704 528.729 273.082 542.334C284.185 546.571 296.291 548.957 308.963 548.957H333.489V491.494C333.551 491.494 303.819 491.494 303.317 491.494Z" fill="white"/>
<path fill-rule="evenodd" clip-rule="evenodd" d="M456.311 319.34V324.412H456.248V405.684H456.123C456.123 421.557 442.573 434.387 425.889 434.387C409.202 434.387 395.717 421.557 395.717 405.684V324.353V319.34H335.184V405.684C335.184 453.362 375.831 492.029 425.951 492.029C436.615 492.029 446.776 490.179 456.311 486.957V520.373C456.311 520.433 456.311 520.552 456.311 520.612V520.731C456.122 536.424 442.699 549.134 426.138 549.134C425.7 549.134 395.904 549.134 395.904 549.134V606.598H420.431C433.102 606.598 445.208 604.271 456.311 599.974C491.69 586.429 516.717 553.49 516.717 514.942V319.281H456.311V319.34Z" fill="white"/>
<path d="M99.8752 699.126L142.203 545.257C116.093 500.222 102.36 449.138 102.379 396.802C102.446 233.077 236.288 99.8751 400.755 99.8751C480.566 99.9085 555.479 130.832 611.813 186.96C668.143 243.086 699.155 317.693 699.126 397.041C699.054 560.762 565.193 693.983 400.755 693.983C400.76 693.983 400.746 693.983 400.755 693.983H400.626C350.69 693.964 301.628 681.496 258.047 657.835L99.8752 699.126ZM265.372 604.081L274.434 609.425C312.502 631.916 356.148 643.811 400.66 643.835H400.755C537.438 643.835 648.687 533.109 648.744 397.023C648.769 331.073 623 269.058 576.177 222.41C529.35 175.762 467.092 150.057 400.846 150.028C264.053 150.028 152.809 260.74 152.756 396.822C152.737 443.456 165.842 488.867 190.67 528.167L196.57 537.506L171.512 628.578L265.372 604.081Z" fill="white"/>
</g>
<defs>
<linearGradient id="paint0_linear_7_92" x1="399.977" y1="0" x2="399.977" y2="799.036" gradientUnits="userSpaceOnUse">
<stop stop-color="#F8DF00"/>
<stop offset="0.5" stop-color="#F8DF00"/>
<stop offset="1" stop-color="#F8DF00"/>
</linearGradient>
<clipPath id="clip0_7_92">
<rect width="800" height="800" fill="white"/>
</clipPath>
</defs>
</svg>
