<svg width="801" height="801" viewBox="0 0 801 801" fill="none" xmlns="http://www.w3.org/2000/svg">
<path d="M799.97 597.012C799.97 601.391 799.836 610.891 799.573 618.23C798.929 636.184 797.505 659.354 795.353 669.91C792.118 685.774 787.234 700.748 780.867 713.211C773.334 727.954 763.724 741.16 752.305 752.558C740.912 763.933 727.718 773.505 712.997 781.008C700.469 787.392 685.402 792.278 669.447 795.499C658.995 797.609 636 799.005 618.159 799.64C610.814 799.902 601.312 800.034 596.948 800.034L203.022 799.971C198.641 799.971 189.143 799.837 181.805 799.573C163.849 798.93 140.68 797.506 130.123 795.355C114.259 792.119 99.2852 787.236 86.8227 780.869C72.0789 773.334 58.8734 763.725 47.4758 752.306C36.1008 740.912 26.5289 727.72 19.0266 712.998C12.6406 700.47 7.75469 685.402 4.53359 669.448C2.42422 658.997 1.02813 636.002 0.392969 618.16C0.132031 610.816 0 601.314 0 596.951L0.0625 203.023C0.0625 198.642 0.196094 189.143 0.459375 181.805C1.10391 163.849 2.52656 140.68 4.67891 130.124C7.91406 114.26 12.7969 99.2859 19.1648 86.8227C26.6984 72.0797 36.3086 58.8734 47.7266 47.4758C59.1203 36.1016 72.3141 26.5289 87.0352 19.0258C99.5641 12.6414 114.632 7.75547 130.586 4.53437C141.037 2.42422 164.033 1.02812 181.873 0.39375C189.219 0.132031 198.721 0 203.084 0L597.011 0.0632813C601.392 0.0632813 610.891 0.196875 618.229 0.460156C636.184 1.10469 659.352 2.52734 669.91 4.67969C685.773 7.91484 700.748 12.7977 713.211 19.1656C727.954 26.6992 741.159 36.3094 752.557 47.7273C763.931 59.1211 773.504 72.3141 781.006 87.0359C787.392 99.5648 792.278 114.632 795.499 130.586C797.609 141.038 799.004 164.033 799.64 181.874C799.902 189.22 800.034 198.721 800.034 203.085L799.97 597.012Z" fill="url(#paint0_linear_7_66)"/>
<path fill-rule="evenodd" clip-rule="evenodd" d="M650.999 316.126H612.917C612.917 272.045 575.263 236.226 528.925 236.226V200C596.261 200 650.999 252.138 650.999 316.126Z" fill="white"/>
<path fill-rule="evenodd" clip-rule="evenodd" d="M302.856 497.389C284.064 497.389 268.831 483.034 268.547 465.158V465.023C268.547 464.887 268.547 464.819 268.547 464.752V362.168V236.562H200V458.59C200 502.264 228.401 539.642 268.547 555.08C281.146 559.888 294.883 562.596 309.262 562.596H337.093V497.389C337.164 497.389 303.425 497.389 302.856 497.389Z" fill="white"/>
<path fill-rule="evenodd" clip-rule="evenodd" d="M476.465 302.038V307.793H476.394V400.017H476.252C476.252 418.029 460.876 432.587 441.944 432.587C423.009 432.587 407.706 418.029 407.706 400.017V307.726V302.038H339.017V400.017C339.017 454.119 385.141 497.997 442.015 497.997C454.115 497.997 465.646 495.897 476.465 492.241V530.16C476.465 530.228 476.465 530.363 476.465 530.431V530.566C476.251 548.374 461.019 562.797 442.227 562.797C441.73 562.797 407.919 562.797 407.919 562.797V628.004H435.751C450.129 628.004 463.866 625.363 476.465 620.487C516.612 605.117 545.011 567.739 545.011 523.997V301.971H476.465V302.038Z" fill="white"/>
<path d="M72.0001 733L120.031 558.397C90.4037 507.294 74.8197 449.326 74.8415 389.938C74.9177 204.151 226.795 52.9999 413.423 52.9999C503.989 53.0378 588.996 88.1286 652.922 151.819C716.842 215.509 752.033 300.169 752 390.209C751.918 575.991 600.019 727.164 413.423 727.164C413.429 727.164 413.413 727.164 413.423 727.164H413.277C356.612 727.142 300.939 712.994 251.486 686.145L72.0001 733ZM259.798 625.148L270.081 631.212C313.278 656.733 362.806 670.231 413.315 670.258H413.423C568.524 670.258 694.764 544.612 694.829 390.188C694.857 315.352 665.616 244.98 612.484 192.046C559.346 139.112 488.699 109.944 413.527 109.911C258.301 109.911 132.067 235.541 132.007 389.96C131.985 442.878 146.856 494.409 175.03 539.004L181.725 549.602L153.29 652.946L259.798 625.148Z" fill="white"/>
<defs>
<linearGradient id="paint0_linear_7_66" x1="400.477" y1="0" x2="400.477" y2="800.035" gradientUnits="userSpaceOnUse">
<stop stop-color="#61FD7D"/>
<stop offset="1" stop-color="#2BB826"/>
</linearGradient>
</defs>
</svg>
